<mxfile host="app.diagrams.net" modified="2021-03-31T13:22:07.461Z" agent="5.0 (X11; Linux x86_64) AppleWebKit/537.36 (KHTML, like Gecko) Chrome/88.0.4324.192 Safari/537.36 OPR/74.0.3911.232" etag="6ffXbhg7mk3uEMzKA3BZ" version="14.5.1" type="github">
  <diagram id="xGj46IYANj5iOg0yPcdx" name="Geral">
    <mxGraphModel dx="1040" dy="540" grid="1" gridSize="10" guides="1" tooltips="1" connect="1" arrows="1" fold="1" page="1" pageScale="1" pageWidth="827" pageHeight="1169" math="0" shadow="0">
      <root>
        <mxCell id="0" />
        <mxCell id="1" parent="0" />
        <mxCell id="A4_t3yzwf4Hzh37emmoY-1" value="Problema de Negócio" style="text;html=1;resizable=0;autosize=1;align=center;verticalAlign=middle;points=[];rounded=0;fontStyle=5;dashed=1;shadow=0;sketch=0;glass=0;fontSize=30;direction=west;rotation=0;" vertex="1" parent="1">
          <mxGeometry x="255" y="20" width="320" height="40" as="geometry" />
        </mxCell>
        <mxCell id="A4_t3yzwf4Hzh37emmoY-10" style="edgeStyle=orthogonalEdgeStyle;rounded=0;orthogonalLoop=1;jettySize=auto;html=1;" edge="1" parent="1" source="A4_t3yzwf4Hzh37emmoY-2" target="A4_t3yzwf4Hzh37emmoY-5">
          <mxGeometry relative="1" as="geometry" />
        </mxCell>
        <mxCell id="A4_t3yzwf4Hzh37emmoY-11" value="Quer Vender" style="edgeLabel;html=1;align=center;verticalAlign=middle;resizable=0;points=[];" vertex="1" connectable="0" parent="A4_t3yzwf4Hzh37emmoY-10">
          <mxGeometry x="-0.2526" y="-1" relative="1" as="geometry">
            <mxPoint x="20" y="-1" as="offset" />
          </mxGeometry>
        </mxCell>
        <mxCell id="A4_t3yzwf4Hzh37emmoY-12" style="edgeStyle=orthogonalEdgeStyle;rounded=0;orthogonalLoop=1;jettySize=auto;html=1;entryX=0;entryY=0.5;entryDx=0;entryDy=0;" edge="1" parent="1" source="A4_t3yzwf4Hzh37emmoY-2" target="A4_t3yzwf4Hzh37emmoY-7">
          <mxGeometry relative="1" as="geometry">
            <Array as="points">
              <mxPoint x="170" y="210" />
              <mxPoint x="170" y="365" />
            </Array>
          </mxGeometry>
        </mxCell>
        <mxCell id="A4_t3yzwf4Hzh37emmoY-13" value="Cadastro Produto" style="edgeLabel;html=1;align=center;verticalAlign=middle;resizable=0;points=[];" vertex="1" connectable="0" parent="A4_t3yzwf4Hzh37emmoY-12">
          <mxGeometry x="-0.0508" y="-3" relative="1" as="geometry">
            <mxPoint as="offset" />
          </mxGeometry>
        </mxCell>
        <mxCell id="A4_t3yzwf4Hzh37emmoY-2" value="Usuário 1" style="shape=umlActor;verticalLabelPosition=bottom;verticalAlign=top;html=1;outlineConnect=0;" vertex="1" parent="1">
          <mxGeometry x="100" y="170" width="40" height="80" as="geometry" />
        </mxCell>
        <mxCell id="A4_t3yzwf4Hzh37emmoY-20" value="T" style="edgeStyle=orthogonalEdgeStyle;rounded=0;orthogonalLoop=1;jettySize=auto;html=1;entryX=0.5;entryY=1;entryDx=0;entryDy=0;startArrow=classic;startFill=1;" edge="1" parent="1" source="A4_t3yzwf4Hzh37emmoY-4" target="A4_t3yzwf4Hzh37emmoY-7">
          <mxGeometry relative="1" as="geometry" />
        </mxCell>
        <mxCell id="A4_t3yzwf4Hzh37emmoY-21" value="Transferência de Dados" style="edgeLabel;html=1;align=center;verticalAlign=middle;resizable=0;points=[];" vertex="1" connectable="0" parent="A4_t3yzwf4Hzh37emmoY-20">
          <mxGeometry x="-0.0428" y="-1" relative="1" as="geometry">
            <mxPoint as="offset" />
          </mxGeometry>
        </mxCell>
        <mxCell id="A4_t3yzwf4Hzh37emmoY-24" style="edgeStyle=orthogonalEdgeStyle;rounded=0;orthogonalLoop=1;jettySize=auto;html=1;entryX=0.97;entryY=0.948;entryDx=0;entryDy=0;entryPerimeter=0;startArrow=none;startFill=0;" edge="1" parent="1" source="A4_t3yzwf4Hzh37emmoY-4" target="A4_t3yzwf4Hzh37emmoY-8">
          <mxGeometry relative="1" as="geometry">
            <Array as="points">
              <mxPoint x="607" y="500" />
            </Array>
          </mxGeometry>
        </mxCell>
        <mxCell id="A4_t3yzwf4Hzh37emmoY-25" value="Scaneia QR Code" style="edgeLabel;html=1;align=center;verticalAlign=middle;resizable=0;points=[];" vertex="1" connectable="0" parent="A4_t3yzwf4Hzh37emmoY-24">
          <mxGeometry x="0.4525" y="-2" relative="1" as="geometry">
            <mxPoint as="offset" />
          </mxGeometry>
        </mxCell>
        <mxCell id="A4_t3yzwf4Hzh37emmoY-4" value="Usuário 2" style="shape=umlActor;verticalLabelPosition=bottom;verticalAlign=top;html=1;outlineConnect=0;" vertex="1" parent="1">
          <mxGeometry x="100" y="420" width="40" height="80" as="geometry" />
        </mxCell>
        <mxCell id="A4_t3yzwf4Hzh37emmoY-5" value="Produto" style="whiteSpace=wrap;html=1;shape=mxgraph.basic.isocube;isoAngle=15;fillColor=#dae8fc;strokeColor=#6c8ebf;" vertex="1" parent="1">
          <mxGeometry x="300" y="175" width="70" height="70" as="geometry" />
        </mxCell>
        <mxCell id="A4_t3yzwf4Hzh37emmoY-28" style="edgeStyle=orthogonalEdgeStyle;rounded=0;orthogonalLoop=1;jettySize=auto;html=1;startArrow=none;startFill=0;exitX=1;exitY=1;exitDx=0;exitDy=0;exitPerimeter=0;entryX=0;entryY=0.3333333333333333;entryDx=0;entryDy=0;entryPerimeter=0;" edge="1" parent="1" source="A4_t3yzwf4Hzh37emmoY-6" target="A4_t3yzwf4Hzh37emmoY-4">
          <mxGeometry relative="1" as="geometry">
            <Array as="points">
              <mxPoint x="800" y="580" />
              <mxPoint x="80" y="580" />
              <mxPoint x="80" y="447" />
            </Array>
          </mxGeometry>
        </mxCell>
        <mxCell id="A4_t3yzwf4Hzh37emmoY-29" value="Envia Dados&lt;br&gt;(Whatsapp e/ou Telegram)" style="edgeLabel;html=1;align=center;verticalAlign=middle;resizable=0;points=[];" vertex="1" connectable="0" parent="A4_t3yzwf4Hzh37emmoY-28">
          <mxGeometry x="0.066" y="4" relative="1" as="geometry">
            <mxPoint as="offset" />
          </mxGeometry>
        </mxCell>
        <mxCell id="A4_t3yzwf4Hzh37emmoY-6" value="Bot" style="shape=umlActor;verticalLabelPosition=bottom;verticalAlign=top;html=1;outlineConnect=0;strokeColor=#666666;fontColor=#333333;fillColor=#4A4A4A;" vertex="1" parent="1">
          <mxGeometry x="760" y="325" width="40" height="80" as="geometry" />
        </mxCell>
        <mxCell id="A4_t3yzwf4Hzh37emmoY-15" style="edgeStyle=orthogonalEdgeStyle;rounded=0;orthogonalLoop=1;jettySize=auto;html=1;entryX=0.13;entryY=0.6;entryDx=0;entryDy=0;entryPerimeter=0;" edge="1" parent="1" source="A4_t3yzwf4Hzh37emmoY-7" target="A4_t3yzwf4Hzh37emmoY-8">
          <mxGeometry relative="1" as="geometry" />
        </mxCell>
        <mxCell id="A4_t3yzwf4Hzh37emmoY-16" value="Gera QRCode" style="edgeLabel;html=1;align=center;verticalAlign=middle;resizable=0;points=[];" vertex="1" connectable="0" parent="A4_t3yzwf4Hzh37emmoY-15">
          <mxGeometry x="-0.3247" y="3" relative="1" as="geometry">
            <mxPoint y="2.94" as="offset" />
          </mxGeometry>
        </mxCell>
        <mxCell id="A4_t3yzwf4Hzh37emmoY-22" style="edgeStyle=orthogonalEdgeStyle;rounded=0;orthogonalLoop=1;jettySize=auto;html=1;startArrow=classic;startFill=1;" edge="1" parent="1" source="A4_t3yzwf4Hzh37emmoY-7" target="A4_t3yzwf4Hzh37emmoY-5">
          <mxGeometry relative="1" as="geometry" />
        </mxCell>
        <mxCell id="A4_t3yzwf4Hzh37emmoY-23" value="Transferência de Dados" style="edgeLabel;html=1;align=center;verticalAlign=middle;resizable=0;points=[];" vertex="1" connectable="0" parent="A4_t3yzwf4Hzh37emmoY-22">
          <mxGeometry x="0.2899" y="1" relative="1" as="geometry">
            <mxPoint as="offset" />
          </mxGeometry>
        </mxCell>
        <mxCell id="A4_t3yzwf4Hzh37emmoY-7" value="Aplicação" style="shape=message;html=1;whiteSpace=wrap;html=1;outlineConnect=0;fillColor=#e1d5e7;strokeColor=#9673a6;" vertex="1" parent="1">
          <mxGeometry x="300" y="340" width="70" height="50" as="geometry" />
        </mxCell>
        <mxCell id="A4_t3yzwf4Hzh37emmoY-17" style="edgeStyle=orthogonalEdgeStyle;rounded=0;orthogonalLoop=1;jettySize=auto;html=1;entryX=1;entryY=0.5;entryDx=0;entryDy=0;entryPerimeter=0;exitX=0.5;exitY=0;exitDx=0;exitDy=0;exitPerimeter=0;" edge="1" parent="1" source="A4_t3yzwf4Hzh37emmoY-8" target="A4_t3yzwf4Hzh37emmoY-5">
          <mxGeometry relative="1" as="geometry" />
        </mxCell>
        <mxCell id="A4_t3yzwf4Hzh37emmoY-18" value="Anexado/Colado&lt;br&gt;no Produto" style="edgeLabel;html=1;align=center;verticalAlign=middle;resizable=0;points=[];" vertex="1" connectable="0" parent="A4_t3yzwf4Hzh37emmoY-17">
          <mxGeometry x="-0.3316" y="1" relative="1" as="geometry">
            <mxPoint as="offset" />
          </mxGeometry>
        </mxCell>
        <mxCell id="A4_t3yzwf4Hzh37emmoY-26" style="edgeStyle=orthogonalEdgeStyle;rounded=0;orthogonalLoop=1;jettySize=auto;html=1;entryX=0.5;entryY=0.5;entryDx=0;entryDy=0;entryPerimeter=0;startArrow=none;startFill=0;" edge="1" parent="1" source="A4_t3yzwf4Hzh37emmoY-8" target="A4_t3yzwf4Hzh37emmoY-6">
          <mxGeometry relative="1" as="geometry" />
        </mxCell>
        <mxCell id="A4_t3yzwf4Hzh37emmoY-27" value="Ativação" style="edgeLabel;html=1;align=center;verticalAlign=middle;resizable=0;points=[];" vertex="1" connectable="0" parent="A4_t3yzwf4Hzh37emmoY-26">
          <mxGeometry x="-0.2342" y="2" relative="1" as="geometry">
            <mxPoint x="5.29" y="2" as="offset" />
          </mxGeometry>
        </mxCell>
        <mxCell id="A4_t3yzwf4Hzh37emmoY-8" value="QRCode" style="verticalLabelPosition=bottom;verticalAlign=top;html=1;shape=mxgraph.basic.banner;fillColor=#d5e8d4;strokeColor=#82b366;" vertex="1" parent="1">
          <mxGeometry x="510" y="340" width="100" height="50" as="geometry" />
        </mxCell>
      </root>
    </mxGraphModel>
  </diagram>
</mxfile>
